<svg width="1024" height="300" viewBox="0 0 1024 300" fill="none" xmlns="http://www.w3.org/2000/svg">
<path d="M0 0H1024V300H0V0Z" fill="black"/>
<path d="M578.522 262.46H580.182V280.58H578.522V262.46ZM570.642 263.86C573.322 263.86 575.242 266.32 575.242 270.16C575.242 274.02 573.322 276.48 570.642 276.48C567.982 276.48 566.062 274.02 566.062 270.16C566.062 266.32 567.982 263.86 570.642 263.86ZM570.642 265.36C568.882 265.36 567.642 267.24 567.642 270.16C567.642 273.1 568.882 275.02 570.642 275.02C572.422 275.02 573.642 273.1 573.642 270.16C573.642 267.24 572.422 265.36 570.642 265.36ZM588.341 263.5H589.721V265.36C589.721 268.86 587.741 271.72 584.641 272.88L583.781 271.52C586.541 270.54 588.341 268.12 588.341 265.36V263.5ZM588.641 263.5H590.001V265.3C590.001 267.86 591.761 270.12 594.401 271.04L593.501 272.34C590.581 271.24 588.641 268.58 588.641 265.3V263.5ZM597.001 262.48H598.661V273.18H597.001V262.48ZM592.721 273.7C596.441 273.7 598.741 274.96 598.741 277.12C598.741 279.28 596.441 280.52 592.721 280.52C588.981 280.52 586.681 279.28 586.681 277.12C586.681 274.96 588.981 273.7 592.721 273.7ZM592.721 275.02C590.001 275.02 588.341 275.8 588.341 277.12C588.341 278.44 590.001 279.22 592.721 279.22C595.441 279.22 597.101 278.44 597.101 277.12C597.101 275.8 595.441 275.02 592.721 275.02ZM593.081 266.3H597.361V267.68H593.081V266.3ZM604.259 263.64H615.559V265H604.259V263.64ZM602.199 271.52H618.539V272.88H602.199V271.52ZM606.399 272.36H608.059V280.56H606.399V272.36ZM614.659 263.64H616.299V264.98C616.299 266.68 616.299 268.86 615.679 271.96L614.039 271.8C614.659 268.8 614.659 266.64 614.659 264.98V263.64ZM612.579 272.36H614.239V280.56H612.579V272.36Z" fill="white"/>
<path d="M578.522 220.46H580.182V238.58H578.522V220.46ZM570.642 221.86C573.322 221.86 575.242 224.32 575.242 228.16C575.242 232.02 573.322 234.48 570.642 234.48C567.982 234.48 566.062 232.02 566.062 228.16C566.062 224.32 567.982 221.86 570.642 221.86ZM570.642 223.36C568.882 223.36 567.642 225.24 567.642 228.16C567.642 231.1 568.882 233.02 570.642 233.02C572.422 233.02 573.642 231.1 573.642 228.16C573.642 225.24 572.422 223.36 570.642 223.36ZM588.341 221.5H589.721V223.36C589.721 226.86 587.741 229.72 584.641 230.88L583.781 229.52C586.541 228.54 588.341 226.12 588.341 223.36V221.5ZM588.641 221.5H590.001V223.3C590.001 225.86 591.761 228.12 594.401 229.04L593.501 230.34C590.581 229.24 588.641 226.58 588.641 223.3V221.5ZM597.001 220.48H598.661V231.18H597.001V220.48ZM592.721 231.7C596.441 231.7 598.741 232.96 598.741 235.12C598.741 237.28 596.441 238.52 592.721 238.52C588.981 238.52 586.681 237.28 586.681 235.12C586.681 232.96 588.981 231.7 592.721 231.7ZM592.721 233.02C590.001 233.02 588.341 233.8 588.341 235.12C588.341 236.44 590.001 237.22 592.721 237.22C595.441 237.22 597.101 236.44 597.101 235.12C597.101 233.8 595.441 233.02 592.721 233.02ZM593.081 224.3H597.361V225.68H593.081V224.3ZM604.259 221.64H615.559V223H604.259V221.64ZM602.199 229.52H618.539V230.88H602.199V229.52ZM606.399 230.36H608.059V238.56H606.399V230.36ZM614.659 221.64H616.299V222.98C616.299 224.68 616.299 226.86 615.679 229.96L614.039 229.8C614.659 226.8 614.659 224.64 614.659 222.98V221.64ZM612.579 230.36H614.239V238.56H612.579V230.36Z" fill="white"/>
<path d="M578.522 178.46H580.182V196.58H578.522V178.46ZM570.642 179.86C573.322 179.86 575.242 182.32 575.242 186.16C575.242 190.02 573.322 192.48 570.642 192.48C567.982 192.48 566.062 190.02 566.062 186.16C566.062 182.32 567.982 179.86 570.642 179.86ZM570.642 181.36C568.882 181.36 567.642 183.24 567.642 186.16C567.642 189.1 568.882 191.02 570.642 191.02C572.422 191.02 573.642 189.1 573.642 186.16C573.642 183.24 572.422 181.36 570.642 181.36ZM588.341 179.5H589.721V181.36C589.721 184.86 587.741 187.72 584.641 188.88L583.781 187.52C586.541 186.54 588.341 184.12 588.341 181.36V179.5ZM588.641 179.5H590.001V181.3C590.001 183.86 591.761 186.12 594.401 187.04L593.501 188.34C590.581 187.24 588.641 184.58 588.641 181.3V179.5ZM597.001 178.48H598.661V189.18H597.001V178.48ZM592.721 189.7C596.441 189.7 598.741 190.96 598.741 193.12C598.741 195.28 596.441 196.52 592.721 196.52C588.981 196.52 586.681 195.28 586.681 193.12C586.681 190.96 588.981 189.7 592.721 189.7ZM592.721 191.02C590.001 191.02 588.341 191.8 588.341 193.12C588.341 194.44 590.001 195.22 592.721 195.22C595.441 195.22 597.101 194.44 597.101 193.12C597.101 191.8 595.441 191.02 592.721 191.02ZM593.081 182.3H597.361V183.68H593.081V182.3ZM604.259 179.64H615.559V181H604.259V179.64ZM602.199 187.52H618.539V188.88H602.199V187.52ZM606.399 188.36H608.059V196.56H606.399V188.36ZM614.659 179.64H616.299V180.98C616.299 182.68 616.299 184.86 615.679 187.96L614.039 187.8C614.659 184.8 614.659 182.64 614.659 180.98V179.64ZM612.579 188.36H614.239V196.56H612.579V188.36Z" fill="white"/>
<path d="M578.522 136.46H580.182V154.58H578.522V136.46ZM570.642 137.86C573.322 137.86 575.242 140.32 575.242 144.16C575.242 148.02 573.322 150.48 570.642 150.48C567.982 150.48 566.062 148.02 566.062 144.16C566.062 140.32 567.982 137.86 570.642 137.86ZM570.642 139.36C568.882 139.36 567.642 141.24 567.642 144.16C567.642 147.1 568.882 149.02 570.642 149.02C572.422 149.02 573.642 147.1 573.642 144.16C573.642 141.24 572.422 139.36 570.642 139.36ZM588.341 137.5H589.721V139.36C589.721 142.86 587.741 145.72 584.641 146.88L583.781 145.52C586.541 144.54 588.341 142.12 588.341 139.36V137.5ZM588.641 137.5H590.001V139.3C590.001 141.86 591.761 144.12 594.401 145.04L593.501 146.34C590.581 145.24 588.641 142.58 588.641 139.3V137.5ZM597.001 136.48H598.661V147.18H597.001V136.48ZM592.721 147.7C596.441 147.7 598.741 148.96 598.741 151.12C598.741 153.28 596.441 154.52 592.721 154.52C588.981 154.52 586.681 153.28 586.681 151.12C586.681 148.96 588.981 147.7 592.721 147.7ZM592.721 149.02C590.001 149.02 588.341 149.8 588.341 151.12C588.341 152.44 590.001 153.22 592.721 153.22C595.441 153.22 597.101 152.44 597.101 151.12C597.101 149.8 595.441 149.02 592.721 149.02ZM593.081 140.3H597.361V141.68H593.081V140.3ZM604.259 137.64H615.559V139H604.259V137.64ZM602.199 145.52H618.539V146.88H602.199V145.52ZM606.399 146.36H608.059V154.56H606.399V146.36ZM614.659 137.64H616.299V138.98C616.299 140.68 616.299 142.86 615.679 145.96L614.039 145.8C614.659 142.8 614.659 140.64 614.659 138.98V137.64ZM612.579 146.36H614.239V154.56H612.579V146.36Z" fill="white"/>
<path d="M578.522 94.46H580.182V112.58H578.522V94.46ZM570.642 95.86C573.322 95.86 575.242 98.32 575.242 102.16C575.242 106.02 573.322 108.48 570.642 108.48C567.982 108.48 566.062 106.02 566.062 102.16C566.062 98.32 567.982 95.86 570.642 95.86ZM570.642 97.36C568.882 97.36 567.642 99.24 567.642 102.16C567.642 105.1 568.882 107.02 570.642 107.02C572.422 107.02 573.642 105.1 573.642 102.16C573.642 99.24 572.422 97.36 570.642 97.36ZM588.341 95.5H589.721V97.36C589.721 100.86 587.741 103.72 584.641 104.88L583.781 103.52C586.541 102.54 588.341 100.12 588.341 97.36V95.5ZM588.641 95.5H590.001V97.3C590.001 99.86 591.761 102.12 594.401 103.04L593.501 104.34C590.581 103.24 588.641 100.58 588.641 97.3V95.5ZM597.001 94.48H598.661V105.18H597.001V94.48ZM592.721 105.7C596.441 105.7 598.741 106.96 598.741 109.12C598.741 111.28 596.441 112.52 592.721 112.52C588.981 112.52 586.681 111.28 586.681 109.12C586.681 106.96 588.981 105.7 592.721 105.7ZM592.721 107.02C590.001 107.02 588.341 107.8 588.341 109.12C588.341 110.44 590.001 111.22 592.721 111.22C595.441 111.22 597.101 110.44 597.101 109.12C597.101 107.8 595.441 107.02 592.721 107.02ZM593.081 98.3H597.361V99.68H593.081V98.3ZM604.259 95.64H615.559V97H604.259V95.64ZM602.199 103.52H618.539V104.88H602.199V103.52ZM606.399 104.36H608.059V112.56H606.399V104.36ZM614.659 95.64H616.299V96.98C616.299 98.68 616.299 100.86 615.679 103.96L614.039 103.8C614.659 100.8 614.659 98.64 614.659 96.98V95.64ZM612.579 104.36H614.239V112.56H612.579V104.36Z" fill="white"/>
<path d="M580.522 52.46H582.182V70.58H580.522V52.46ZM572.642 53.86C575.322 53.86 577.242 56.32 577.242 60.16C577.242 64.02 575.322 66.48 572.642 66.48C569.982 66.48 568.062 64.02 568.062 60.16C568.062 56.32 569.982 53.86 572.642 53.86ZM572.642 55.36C570.882 55.36 569.642 57.24 569.642 60.16C569.642 63.1 570.882 65.02 572.642 65.02C574.422 65.02 575.642 63.1 575.642 60.16C575.642 57.24 574.422 55.36 572.642 55.36ZM590.341 53.5H591.721V55.36C591.721 58.86 589.741 61.72 586.641 62.88L585.781 61.52C588.541 60.54 590.341 58.12 590.341 55.36V53.5ZM590.641 53.5H592.001V55.3C592.001 57.86 593.761 60.12 596.401 61.04L595.501 62.34C592.581 61.24 590.641 58.58 590.641 55.3V53.5ZM599.001 52.48H600.661V63.18H599.001V52.48ZM594.721 63.7C598.441 63.7 600.741 64.96 600.741 67.12C600.741 69.28 598.441 70.52 594.721 70.52C590.981 70.52 588.681 69.28 588.681 67.12C588.681 64.96 590.981 63.7 594.721 63.7ZM594.721 65.02C592.001 65.02 590.341 65.8 590.341 67.12C590.341 68.44 592.001 69.22 594.721 69.22C597.441 69.22 599.101 68.44 599.101 67.12C599.101 65.8 597.441 65.02 594.721 65.02ZM595.081 56.3H599.361V57.68H595.081V56.3ZM606.259 53.64H617.559V55H606.259V53.64ZM604.199 61.52H620.539V62.88H604.199V61.52ZM608.399 62.36H610.059V70.56H608.399V62.36ZM616.659 53.64H618.299V54.98C618.299 56.68 618.299 58.86 617.679 61.96L616.039 61.8C616.659 58.8 616.659 56.64 616.659 54.98V53.64ZM614.579 62.36H616.239V70.56H614.579V62.36Z" fill="white"/>
<path d="M437.462 262.48H439.122V273.08H437.462V262.48ZM438.662 267.04H441.802V268.44H438.662V267.04ZM432.462 263.64H434.202C434.202 268.2 431.022 271.46 425.742 272.9L425.062 271.6C429.742 270.32 432.462 267.7 432.462 264.36V263.64ZM425.862 263.64H433.382V264.98H425.862V263.64ZM427.382 273.92H439.122V280.56H437.462V275.26H427.382V273.92ZM447.28 263.56H448.6V265.98C448.6 268.7 447.06 271.56 444.4 272.78L443.5 271.48C445.86 270.42 447.28 268.04 447.28 265.98V263.56ZM447.54 263.56H448.86V265.98C448.86 268.04 450.2 270.1 452.52 271.04L451.64 272.32C449.02 271.22 447.54 268.68 447.54 265.98V263.56ZM457.14 262.5H458.72V273.42H457.14V262.5ZM454.22 267.18H457.64V268.56H454.22V267.18ZM453.26 262.8H454.84V273.32H453.26V262.8ZM446.6 274.4H458.72V280.56H457.08V275.76H446.6V274.4Z" fill="white"/>
<path d="M435.962 220.48H437.622V231.08H435.962V220.48ZM437.162 225.04H440.302V226.44H437.162V225.04ZM430.962 221.64H432.702C432.702 226.2 429.522 229.46 424.242 230.9L423.562 229.6C428.242 228.32 430.962 225.7 430.962 222.36V221.64ZM424.362 221.64H431.882V222.98H424.362V221.64ZM425.882 231.92H437.622V238.56H435.962V233.26H425.882V231.92ZM444.16 221.2H445.8V223.46H454.54V221.2H456.2V228.42H444.16V221.2ZM445.8 224.78V227.08H454.54V224.78H445.8ZM441.98 230.34H458.32V231.7H441.98V230.34ZM449.34 227.64H450.98V230.94H449.34V227.64ZM444.1 236.8H456.52V238.16H444.1V236.8ZM444.1 233.16H445.76V237.26H444.1V233.16Z" fill="white"/>
<path d="M386.703 192.86H403.083V194.24H386.703V192.86ZM388.123 180.28H401.543V181.64H388.123V180.28ZM388.163 187.92H401.523V189.28H388.163V187.92ZM390.943 181.54H392.603V188.06H390.943V181.54ZM397.103 181.54H398.743V188.06H397.103V181.54ZM405.102 192.96H421.482V194.34H405.102V192.96ZM412.422 189.08H414.082V193.54H412.422V189.08ZM407.082 179.82H419.462V185.3H408.782V188.92H407.142V183.96H417.822V181.16H407.082V179.82ZM407.142 188.22H419.882V189.58H407.142V188.22ZM427.72 189.26H429.38V196.56H427.72V189.26ZM433.98 189.26H435.62V196.56H433.98V189.26ZM425.74 185.08H437.82V186.44H425.74V185.08ZM423.48 188.84H439.88V190.22H423.48V188.84ZM425.74 179.44H437.58V180.8H427.42V185.78H425.74V179.44ZM450.918 184.6H455.958V185.96H450.918V184.6ZM446.558 180.04H447.918V183.26C447.918 187.32 445.778 191.2 442.918 192.74L441.858 191.42C444.518 190.1 446.558 186.62 446.558 183.26V180.04ZM446.878 180.04H448.218V183.26C448.218 186.56 450.258 189.84 452.878 191.08L451.898 192.42C448.978 190.94 446.878 187.22 446.878 183.26V180.04ZM455.138 178.46H456.778V196.58H455.138V178.46Z" fill="white"/>
<path d="M345.472 145.84H361.812V147.18H345.472V145.84ZM352.832 143.62H354.472V146.46H352.832V143.62ZM352.832 136.42H354.472V138.94H352.832V136.42ZM352.752 139.1H354.212V139.4C354.212 142.36 350.892 144.08 346.932 144.48L346.432 143.2C349.932 142.9 352.752 141.46 352.752 139.4V139.1ZM353.092 139.1H354.552V139.4C354.552 141.46 357.372 142.9 360.872 143.2L360.372 144.48C356.412 144.08 353.092 142.36 353.092 139.4V139.1ZM347.152 138.24H360.152V139.56H347.152V138.24ZM353.632 148.54C357.532 148.54 359.832 149.6 359.832 151.54C359.832 153.48 357.532 154.52 353.632 154.52C349.732 154.52 347.432 153.48 347.432 151.54C347.432 149.6 349.732 148.54 353.632 148.54ZM353.632 149.8C350.772 149.8 349.112 150.4 349.112 151.54C349.112 152.64 350.772 153.26 353.632 153.26C356.492 153.26 358.152 152.64 358.152 151.54C358.152 150.4 356.492 149.8 353.632 149.8ZM364.851 137.46H372.851V138.8H364.851V137.46ZM367.571 141.08H369.211V144.96H367.571V141.08ZM372.191 137.46H373.811V138.34C373.811 139.34 373.811 140.92 373.351 142.96L371.731 142.8C372.191 140.76 372.191 139.34 372.191 138.34V137.46ZM376.291 136.48H377.951V146.2H376.291V136.48ZM377.191 140.76H380.531V142.14H377.191V140.76ZM363.931 145.72L363.771 144.36C367.051 144.36 371.431 144.32 375.091 143.86L375.211 145.02C371.451 145.64 367.191 145.72 363.931 145.72ZM366.131 147H377.951V151.18H367.811V153.56H366.151V149.96H376.291V148.28H366.131V147ZM366.151 153.1H378.611V154.38H366.151V153.1ZM387.914 150.86H404.294V152.24H387.914V150.86ZM389.334 138.28H402.754V139.64H389.334V138.28ZM389.374 145.92H402.734V147.28H389.374V145.92ZM392.154 139.54H393.814V146.06H392.154V139.54ZM398.314 139.54H399.954V146.06H398.314V139.54ZM406.313 150.96H422.693V152.34H406.313V150.96ZM413.633 147.08H415.293V151.54H413.633V147.08ZM408.293 137.82H420.673V143.3H409.993V146.92H408.353V141.96H419.033V139.16H408.293V137.82ZM408.353 146.22H421.093V147.58H408.353V146.22ZM428.931 147.26H430.591V154.56H428.931V147.26ZM435.191 147.26H436.831V154.56H435.191V147.26ZM426.951 143.08H439.031V144.44H426.951V143.08ZM424.691 146.84H441.091V148.22H424.691V146.84ZM426.951 137.44H438.791V138.8H428.631V143.78H426.951V137.44ZM452.129 142.6H457.169V143.96H452.129V142.6ZM447.769 138.04H449.129V141.26C449.129 145.32 446.989 149.2 444.129 150.74L443.069 149.42C445.729 148.1 447.769 144.62 447.769 141.26V138.04ZM448.089 138.04H449.429V141.26C449.429 144.56 451.469 147.84 454.089 149.08L453.109 150.42C450.189 148.94 448.089 145.22 448.089 141.26V138.04ZM456.349 136.46H457.989V154.58H456.349V136.46Z" fill="white"/>
<path d="M437.342 94.48H438.942V112.56H437.342V94.48ZM430.762 100.96H434.222V102.34H430.762V100.96ZM433.722 94.9H435.282V111.64H433.722V94.9ZM427.282 97.28H428.562V99.58C428.562 103.54 427.042 107.28 424.382 108.96L423.362 107.72C425.882 106.2 427.282 102.9 427.282 99.58V97.28ZM427.622 97.28H428.902V99.58C428.902 102.72 430.262 105.86 432.742 107.3L431.722 108.52C429.082 106.92 427.622 103.36 427.622 99.58V97.28ZM423.862 96.58H432.122V97.96H423.862V96.58ZM446.44 96.34H447.8V97.8C447.8 101.12 445.8 103.88 442.78 104.96L441.9 103.66C444.64 102.7 446.44 100.38 446.44 97.8V96.34ZM446.74 96.34H448.1V97.78C448.1 100.18 449.84 102.4 452.5 103.3L451.64 104.6C448.66 103.56 446.74 100.9 446.74 97.78V96.34ZM442.42 95.74H452.08V97.1H442.42V95.74ZM454.36 94.48H456.02V105.36H454.36V94.48ZM455.56 99.24H458.7V100.62H455.56V99.24ZM444.28 106.32H456.02V112.56H454.36V107.7H444.28V106.32Z" fill="white"/>
<path d="M435.962 52.48H437.622V62.72H435.962V52.48ZM437.162 56.88H440.302V58.26H437.162V56.88ZM430.962 53.64H432.722C432.722 58.2 429.542 61.48 424.222 62.92L423.582 61.6C428.262 60.32 430.962 57.7 430.962 54.38V53.64ZM424.362 53.64H431.882V54.98H424.362V53.64ZM426.242 63.58H437.622V70.32H426.242V63.58ZM435.982 64.92H427.882V68.96H435.982V64.92ZM442 61.5H458.34V62.82H442V61.5ZM449.34 58.38H450.98V62.02H449.34V58.38ZM443.8 64.58H456.34V70.7H454.68V65.94H443.8V64.58ZM444.06 57.98H456.46V59.34H444.06V57.98ZM444.06 53.2H456.3V54.56H445.72V58.68H444.06V53.2Z" fill="white"/>
</svg>
